<svg width="500" height="200">
    <rect width="10" height="10" x="0" y="50" fill="red" />
    <rect width="10" height="10" x="20" y="50" fill="red" />
    <rect width="10" height="10" x="40" y="50" fill="red" />
    <rect width="10" height="10" x="60" y="50" fill="red" />
    <rect width="10" height="10" x="80" y="50" fill="red" />
    <rect width="10" height="10" x="100" y="50" fill="red" />
    <rect width="10" height="10" x="120" y="50" fill="red" />
    <rect width="10" height="10" x="140" y="50" fill="red" />
    <rect width="10" height="10" x="160" y="50" fill="red" />
    <rect width="10" height="10" x="180" y="50" fill="red" />
    <rect width="10" height="10" x="200" y="50" fill="red" />
    <rect width="10" height="10" x="220" y="50" fill="red" />
    <rect width="10" height="10" x="240" y="50" fill="red" />
    <rect width="10" height="10" x="260" y="50" fill="red" />
    <rect width="10" height="10" x="280" y="50" fill="red" />
    <rect width="10" height="10" x="300" y="50" fill="red" />
    <rect width="10" height="10" x="320" y="50" fill="red" />
    <rect width="10" height="10" x="340" y="50" fill="red" />
    <rect width="10" height="10" x="360" y="50" fill="red" />
    <rect width="10" height="10" x="380" y="50" fill="red" />
</svg>